<svg xmlns="http://www.w3.org/2000/svg" width="196" height="45.316" viewBox="0 0 196 45.316"><defs><style>.a{fill:#96d226;}.b{fill:#32cbcb;}.c{fill:#fff;}</style></defs><g transform="translate(0 0)"><g transform="translate(0 0)"><path class="a" d="M100.98,1598.763l4.118,4.118a1.923,1.923,0,0,1,0,2.72l-4.118,4.118a1.923,1.923,0,0,0,0,2.72l.77.77a1.923,1.923,0,0,0,2.72,0l5.478-5.478,2.13-2.13a1.923,1.923,0,0,0,0-2.72l-2.13-2.13-5.478-5.478a1.923,1.923,0,0,0-2.72,0l-.77.77A1.924,1.924,0,0,0,100.98,1598.763Z" transform="translate(-94.191 -1581.507)"/><path class="a" d="M137.875,1561.868l4.118,4.117a1.924,1.924,0,0,0,2.72,0l4.117-4.117a1.924,1.924,0,0,1,2.72,0l.77.77a1.924,1.924,0,0,1,0,2.72l-5.478,5.478-2.13,2.13a1.924,1.924,0,0,1-2.72,0l-2.13-2.13-5.478-5.478a1.924,1.924,0,0,1,0-2.72l.77-.77A1.923,1.923,0,0,1,137.875,1561.868Z" transform="translate(-120.622 -1555.077)"/><path class="a" d="M211.625,1609.645l-4.118-4.117a1.923,1.923,0,0,1,0-2.72l4.118-4.117a1.924,1.924,0,0,0,0-2.72l-.77-.77a1.924,1.924,0,0,0-2.72,0l-5.478,5.478-2.13,2.13a1.923,1.923,0,0,0,0,2.72l2.13,2.13,5.478,5.478a1.924,1.924,0,0,0,2.72,0l.77-.77A1.924,1.924,0,0,0,211.625,1609.645Z" transform="translate(-172.955 -1581.45)"/><path class="b" d="M148.815,1672.455l-4.117-4.117a1.923,1.923,0,0,0-2.72,0l-4.118,4.117a1.923,1.923,0,0,1-2.72,0l-.77-.77a1.924,1.924,0,0,1,0-2.72l5.478-5.478,2.13-2.13a1.924,1.924,0,0,1,2.72,0l2.13,2.13,5.478,5.478a1.924,1.924,0,0,1,0,2.72l-.77.77A1.924,1.924,0,0,1,148.815,1672.455Z" transform="translate(-120.61 -1633.795)"/><path class="a" d="M109.288,1538.112a22.689,22.689,0,1,0,6.627,16.025A22.515,22.515,0,0,0,109.288,1538.112Zm-1.419,30.631a20.68,20.68,0,1,1,6.041-14.606A20.68,20.68,0,0,1,107.869,1568.743Z" transform="translate(-70.6 -1531.474)"/></g><g transform="translate(56.033 13.15)"><path class="c" d="M349.533,1613.34q-1.391.135-2.606.135a11.815,11.815,0,0,1-5.186-.864,4.294,4.294,0,0,1-2.215-2.809,23.385,23.385,0,0,1-.54-5.834,22.573,22.573,0,0,1,.554-5.78,4.433,4.433,0,0,1,2.228-2.836,11.426,11.426,0,0,1,5.159-.891,23.554,23.554,0,0,1,2.566.149,18.22,18.22,0,0,1,2.242.365v3.565q-2.755-.27-3.646-.27a9.3,9.3,0,0,0-3.052.338,1.793,1.793,0,0,0-1.067,1.4,34.241,34.241,0,0,0,0,7.914,1.79,1.79,0,0,0,1.067,1.4,9.282,9.282,0,0,0,3.052.338,24.7,24.7,0,0,0,3.754-.27v3.62A22.62,22.62,0,0,1,349.533,1613.34Z" transform="translate(-338.985 -1594.46)"/><path class="c" d="M427.112,1614.078,426,1610.567h-6.618l-1.053,3.511h-4.7l5.942-18.583h6.375l5.942,18.583Zm-4.376-14.424H422.6l-2.134,7.1h4.43Z" transform="translate(-398.049 -1595.279)"/><path class="c" d="M518.037,1614.078v-18.583h4.7v14.586h7.374v4Z" transform="translate(-480.655 -1595.279)"/><path class="c" d="M594.5,1614.078v-18.583h4.7v18.583Z" transform="translate(-541.153 -1595.279)"/><path class="c" d="M652.9,1614.078l-6.428-10.615h-.135v10.615h-4.484v-18.583h4.835l5.969,9.643h.135v-9.643H657.3v18.583Z" transform="translate(-578.617 -1595.279)"/><path class="c" d="M740.948,1595.495h6.564a14.95,14.95,0,0,1,5.861.824,3.753,3.753,0,0,1,2.188,2.593,40.144,40.144,0,0,1,0,11.75,3.752,3.752,0,0,1-2.188,2.593,14.941,14.941,0,0,1-5.861.824h-6.564Zm6.456,14.775a9.507,9.507,0,0,0,2.768-.257,1.46,1.46,0,0,0,.865-1.242,28.314,28.314,0,0,0,.176-3.984,26.3,26.3,0,0,0-.189-3.97,1.5,1.5,0,0,0-.878-1.256,9.388,9.388,0,0,0-2.741-.257h-1.783v10.966Z" transform="translate(-657.027 -1595.279)"/><path class="c" d="M846.438,1614.078l-2.431-6.51h-3.268v6.51h-4.7v-18.583h8.913a8.3,8.3,0,0,1,3.876.716,3.476,3.476,0,0,1,1.729,1.972,10.951,10.951,0,0,1,.419,3.363,10.261,10.261,0,0,1-.5,3.376,3.452,3.452,0,0,1-1.985,2.08l2.863,7.077Zm-1.2-10.4a1.1,1.1,0,0,0,.8-.608,4.216,4.216,0,0,0,.189-1.5,4.981,4.981,0,0,0-.162-1.526,1.02,1.02,0,0,0-.77-.608,9.067,9.067,0,0,0-2.066-.162h-2.485v4.565h2.431A9.064,9.064,0,0,0,845.236,1603.679Z" transform="translate(-732.266 -1595.279)"/><path class="c" d="M935.42,1614.078l-1.108-3.511H927.7l-1.053,3.511h-4.7l5.942-18.583h6.374l5.942,18.583Zm-4.376-14.424h-.135l-2.134,7.1h4.43Z" transform="translate(-800.234 -1595.279)"/></g></g></svg>